<svg width="57" height="58" viewBox="0 0 57 58" fill="none" xmlns="http://www.w3.org/2000/svg">
<path d="M26.179 0.0448224C27.3108 -0.0431776 28.4487 0.0106001 29.578 0.101045C31.14 0.236711 32.7118 0.503156 34.1553 1.13993C35.8871 1.89771 37.366 3.10404 38.8107 4.30182C42.2708 7.18382 45.5781 10.243 48.9234 13.2583C50.9192 15.0879 52.9261 16.9103 54.8511 18.8157C55.3645 19.3523 55.9609 19.8473 56.2799 20.5317C56.1553 21.4239 55.4561 22.1059 54.8316 22.7048C54.1716 23.2658 53.5751 23.8953 52.9335 24.4746C52.5289 24.8339 51.9129 25.1065 51.3947 24.8303C50.896 24.5858 50.489 24.1972 50.082 23.8293C48.3758 22.2367 46.7735 20.5342 45.0147 18.999C42.9919 17.151 41.0058 15.2639 38.9635 13.4392C37.5102 12.1192 35.9519 10.9189 34.5476 9.54516C33.2154 8.28871 31.7365 7.03471 29.8909 6.66193C28.203 6.34538 26.4015 6.42971 24.8101 7.10927C23.0978 7.83038 21.6812 9.07827 20.3784 10.375C18.7516 11.9273 17.0735 13.4245 15.4174 14.9449C13.8444 16.348 12.3533 17.8392 10.7509 19.2068C9.5507 20.2836 8.31747 21.3592 7.39836 22.6975C6.71758 23.6594 6.72614 24.8914 6.65158 26.0183C6.56358 28.954 6.6797 31.891 6.66747 34.8268C6.67236 37.0268 6.62104 39.2268 6.62715 41.428C6.64548 42.7542 6.65281 44.1023 6.9877 45.3954C7.20158 46.257 7.72103 46.9977 8.25392 47.6932C8.86747 48.4644 9.60447 49.1562 10.4832 49.6194C11.5099 50.1682 12.6698 50.4077 13.8199 50.5202C15.6789 50.6766 17.544 50.5874 19.4067 50.6118C21.5847 50.602 23.9485 50.4762 25.761 49.1219C27.1996 48.0085 28.3839 46.422 28.6601 44.5887C28.852 43.4679 28.7848 42.3252 28.7591 41.1946C28.7078 39.8062 28.7384 38.4165 28.7151 37.0268C28.7164 36.5282 28.6748 35.9452 29.0732 35.5712C29.4289 35.1397 30.0302 35.2106 30.5301 35.1764C31.7951 35.1666 33.0638 35.1275 34.3264 35.2277C34.8861 35.2363 35.3824 35.7386 35.3885 36.2972C35.4704 38.4128 35.4642 40.5309 35.4435 42.6478C35.4031 43.9373 35.4154 45.2438 35.1 46.5052C34.2738 50.0692 31.8709 53.1614 28.7811 55.0754C27.422 55.9163 25.9163 56.5799 24.3151 56.7572C23.2958 56.9026 22.263 56.8696 21.2425 56.9906C19.6133 56.9894 17.9767 57.07 16.3536 56.9038C14.9664 56.8794 13.5791 56.8244 12.1944 56.7462C11.0662 56.6655 9.95526 56.3978 8.91637 55.9493C7.54381 55.4139 6.17126 54.8004 5.0517 53.8238C3.57159 52.5173 2.23692 51.0066 1.33614 49.2393C0.451253 47.511 0.0577024 45.5592 0.0577024 43.6256C0.0564802 38.37 -0.0302981 33.1157 0.0112574 27.8602C0.0430352 26.083 -0.09142 24.2852 0.244691 22.5288C0.68958 20.5562 1.68691 18.7302 3.00813 17.2073C4.16313 15.8359 5.58947 14.7372 6.89114 13.5125C9.0288 11.5777 11.164 9.63682 13.3005 7.69838C14.9957 6.2146 16.5614 4.58049 18.3739 3.23482C20.6326 1.51271 23.3154 0.242822 26.179 0.0448224Z" fill="#7CB721"/>
<path d="M28.2518 20.4474C31.2927 20.4413 34.3373 20.3594 37.3757 20.5122C41.1438 20.9167 44.8545 22.7048 47.1975 25.736C48.5774 27.5277 49.4977 29.6789 49.8253 31.9167C49.9854 33.1659 49.8766 34.4272 49.9047 35.6824C49.9121 41.7935 49.9353 47.9059 49.9243 54.0157C50.0233 54.8102 50.0551 55.6731 49.6725 56.4015C49.3547 56.9442 48.663 56.8599 48.135 56.9772C46.9518 57.0603 45.7614 57.0493 44.5783 56.9992C43.8486 56.954 43.2094 56.3465 43.1813 55.6071C43.1446 54.2626 43.2155 52.917 43.2192 51.5725C43.3218 46.6433 43.2057 41.7128 43.2509 36.7824C43.2216 35.1605 43.4184 33.4995 42.9491 31.9204C42.5433 30.4574 41.5802 29.179 40.3262 28.3332C39.2066 27.5558 37.9001 27.0046 36.5214 26.979C33.7922 26.8885 31.0605 27.0034 28.3313 26.9753C25.3173 26.8775 22.307 28.8807 21.3634 31.7664C20.9503 33.1096 20.9772 34.536 20.9784 35.9256C21.0481 37.638 21.0407 39.3527 21.0065 41.0651C21.0102 41.5393 20.7168 42.0001 20.2781 42.1822C19.7733 42.3936 19.2135 42.3851 18.6782 42.3936C17.9424 42.3912 17.2066 42.3936 16.4721 42.3985C16.015 42.3851 15.5346 42.3912 15.1178 42.1822C14.7463 41.9891 14.4371 41.609 14.4493 41.1751C14.4028 39.3845 14.3466 37.5952 14.3368 35.8046C14.3368 34.5763 14.2696 33.3382 14.4688 32.1196C14.8355 29.6715 15.839 27.3041 17.4437 25.4084C19.3785 23.0898 22.1212 21.5266 25.0313 20.7908C26.0861 20.5476 27.1726 20.4792 28.2518 20.4474Z" fill="#7CB721"/>
</svg>
